<svg id="Layer_1" data-name="Layer 1" xmlns="http://www.w3.org/2000/svg" viewBox="0 0 198.43 216.54"><defs><style>.cls-1{fill:#502c1e;}.cls-2{fill:#fff;}.cls-3{fill:#aaac24;}</style></defs><title>valueArtboard 1</title><path class="cls-1" d="M20.65,133l-.54-1.84a.22.22,0,0,1,.15-.28l.64-.19a.22.22,0,0,1,.27.15l1.43,4.88a.23.23,0,0,1-.15.28l-.64.18a.2.2,0,0,1-.27-.15L21,134.22l-6.66,1.95a.23.23,0,0,1-.28-.15l-.22-.75A.24.24,0,0,1,14,135Z"/><path class="cls-1" d="M24.31,141.11a.24.24,0,0,1,.3.11l.32.72a.22.22,0,0,1-.11.3l-4.44,2a2,2,0,1,0,1.62,3.6l4.46-2a.23.23,0,0,1,.3.11l.33.72a.24.24,0,0,1-.11.3L22.46,149a3.21,3.21,0,0,1-2.67-5.84Z"/><path class="cls-1" d="M34,158.34a.22.22,0,0,1,.31,0L36,160.5a2.64,2.64,0,0,1-.42,3.7,2.67,2.67,0,0,1-3.72-.43l-1.06-1.35-2.18,1.71a.24.24,0,0,1-.32,0l-.47-.6a.23.23,0,0,1,0-.32ZM32.72,163a1.51,1.51,0,0,0,2.12.24,1.45,1.45,0,0,0,.19-2l-1-1.29-2.31,1.81Z"/><path class="cls-1" d="M41.32,166.91a.22.22,0,0,1,.31,0L45,170.19a.23.23,0,0,1,0,.32l-.46.47a.21.21,0,0,1-.31,0l-2.69-2.59-1.68,1.73,2.28,2.19a.24.24,0,0,1,0,.32l-.46.48a.23.23,0,0,1-.32,0l-2.27-2.19-1.76,1.83,2.69,2.59a.22.22,0,0,1,0,.32l-.45.47a.23.23,0,0,1-.32,0l-3.4-3.28a.21.21,0,0,1,0-.31Z"/><path class="cls-1" d="M49.67,174.36a.22.22,0,0,1,.31-.06l2.62,1.88a2.55,2.55,0,0,1,.61,3.56,2.63,2.63,0,0,1-2.82.93L50,184.05a.22.22,0,0,1-.36.16l-.75-.53a.24.24,0,0,1-.09-.2L49.3,180,47.85,179l-1.76,2.45a.23.23,0,0,1-.31.06l-.63-.45a.24.24,0,0,1,0-.32Zm.5,5a1.47,1.47,0,0,0,2-.35,1.45,1.45,0,0,0-.35-2l-1.71-1.23-1.68,2.33Z"/><path class="cls-1" d="M59.72,181a.24.24,0,0,1,.31-.09l2.86,1.46A2.55,2.55,0,0,1,64,185.77a2.61,2.61,0,0,1-2.65,1.34l.08,3.41a.22.22,0,0,1-.33.22l-.82-.42a.22.22,0,0,1-.12-.18l0-3.51-1.59-.81-1.37,2.68a.22.22,0,0,1-.3.1l-.69-.35a.22.22,0,0,1-.09-.3Zm1.26,4.9a1.46,1.46,0,0,0,2-.65,1.45,1.45,0,0,0-.65-1.91l-1.87-.95-1.31,2.56Z"/><path class="cls-1" d="M74.22,186.85a4.25,4.25,0,1,1-5.35,2.76,4.23,4.23,0,0,1,5.35-2.76m-2.24,7a3.06,3.06,0,0,0,3.86-2A3.07,3.07,0,1,0,70,190a3.06,3.06,0,0,0,2,3.85"/><path class="cls-1" d="M94.5,190.55a4.08,4.08,0,0,1,2.79,1.27.22.22,0,0,1,0,.33l-.55.5c-.09.1-.19.09-.29,0a3.17,3.17,0,0,0-2-.91,3.07,3.07,0,0,0-.36,6.12,3.14,3.14,0,0,0,2.08-.66.21.21,0,0,1,.28,0l.51.56a.22.22,0,0,1,0,.32A4.06,4.06,0,0,1,94,199a4.25,4.25,0,1,1,.5-8.49"/><path class="cls-1" d="M106.77,190.25a4.25,4.25,0,1,1,.85,8.46,4.25,4.25,0,0,1-.85-8.46m.73,7.29a3.07,3.07,0,1,0-3.35-2.74,3.08,3.08,0,0,0,3.35,2.74"/><path class="cls-1" d="M116.73,188.9a.24.24,0,0,1,.16-.27l.29-.07,6.52,4.35h0l-1.49-5.38a.23.23,0,0,1,.16-.28l.73-.2a.23.23,0,0,1,.27.16l2.12,7.66a.21.21,0,0,1-.16.26l-.29.09-6.57-4.51h0l1.53,5.55a.22.22,0,0,1-.16.27l-.71.2a.23.23,0,0,1-.28-.16Z"/><path class="cls-1" d="M131.77,191.38c0-.19,0-.39.08-.57a.27.27,0,0,1,.33-.25,3.54,3.54,0,0,0,2.06,0A1.19,1.19,0,0,0,135,189c-.29-.64-1-.8-2.3-.77s-2.43-.16-3-1.41a2.31,2.31,0,0,1,1.48-3.05,3.92,3.92,0,0,1,2.28-.26.29.29,0,0,1,.23.34l-.09.53a.28.28,0,0,1-.33.28,3.62,3.62,0,0,0-1.7.11,1.17,1.17,0,0,0-.79,1.52c.28.61.92.78,2,.74,1.48,0,2.82.07,3.4,1.39a2.41,2.41,0,0,1-1.49,3.11,3.77,3.77,0,0,1-2.7.18c-.14,0-.25-.08-.22-.31"/><path class="cls-1" d="M139,180.2a.23.23,0,0,1,.07-.31l4-2.5a.23.23,0,0,1,.31.08l.35.56a.23.23,0,0,1-.07.31l-3.17,2,1.27,2,2.68-1.66a.24.24,0,0,1,.31.07l.35.56a.22.22,0,0,1-.07.31l-2.68,1.67,1.34,2.15,3.17-2a.24.24,0,0,1,.31.08l.34.55a.23.23,0,0,1-.07.31l-4,2.49a.21.21,0,0,1-.3-.07Z"/><path class="cls-1" d="M148.12,173.87a.23.23,0,0,1,0-.31l.23-.19,7.75,1.17h0l-3.63-4.25a.21.21,0,0,1,0-.31l.58-.49a.22.22,0,0,1,.31,0l5.18,6a.23.23,0,0,1,0,.31l-.23.2-7.86-1.3h0l3.74,4.37a.22.22,0,0,1,0,.32l-.57.48a.22.22,0,0,1-.31,0Z"/><path class="cls-1" d="M159.39,164.54,158.12,166a.23.23,0,0,1-.32,0l-.5-.44a.23.23,0,0,1,0-.31l3.35-3.83a.21.21,0,0,1,.31,0l.5.43a.22.22,0,0,1,0,.32l-1.26,1.45,5.22,4.56a.23.23,0,0,1,0,.32l-.51.59a.26.26,0,0,1-.32,0Z"/><path class="cls-1" d="M164.29,156.92a.22.22,0,0,1-.06-.31l.45-.64a.23.23,0,0,1,.31-.06l6.43,4.46a.25.25,0,0,1,.06.32l-.45.64a.23.23,0,0,1-.31,0Z"/><path class="cls-1" d="M168.52,150.38a.22.22,0,0,1-.1-.3l1.24-2.41a4.13,4.13,0,1,1,7.35,3.79l-1.24,2.42a.23.23,0,0,1-.3.09Zm7.42.72a3,3,0,0,0-5.35-2.77l-.72,1.39,5.35,2.76Z"/><path class="cls-1" d="M174.76,135.1a4.26,4.26,0,1,1,2.78,5.34,4.24,4.24,0,0,1-2.78-5.34m7,2.22a3.07,3.07,0,1,0-3.85,2,3.08,3.08,0,0,0,3.85-2"/><path class="cls-1" d="M2.25,68.83A2.23,2.23,0,0,1,.18,65.71a107.64,107.64,0,0,1,198.06-.49A2.25,2.25,0,0,1,194.11,67a103.14,103.14,0,0,0-189.79.47,2.25,2.25,0,0,1-2.07,1.37"/><path class="cls-1" d="M99.11,216.54A107.53,107.53,0,0,1,.18,151.32a2.25,2.25,0,0,1,4.13-1.77,103.15,103.15,0,0,0,189.8-.47,2.25,2.25,0,0,1,4.14,1.75,107.45,107.45,0,0,1-99.14,65.71"/><path class="cls-2" d="M12.48,108.16A4.46,4.46,0,1,1,8,103.7a4.46,4.46,0,0,1,4.46,4.46"/><path class="cls-2" d="M193.77,108.16a4.46,4.46,0,1,1-4.46-4.46,4.46,4.46,0,0,1,4.46,4.46"/><path class="cls-3" d="M12.8,70.18a.46.46,0,0,1,.66-.28L28.91,76a.45.45,0,0,1,.28.65l-.85,2.18a.46.46,0,0,1-.66.28l-9.2-3.62-.06.17,8.4,5.84a.52.52,0,0,1,.2.67l-.54,1.39a.53.53,0,0,1-.61.35L15.74,82.45l-.07.16,9.2,3.62a.45.45,0,0,1,.29.65L24.31,89a.45.45,0,0,1-.65.28L8.21,83.24a.45.45,0,0,1-.29-.65L9.14,79.5a.52.52,0,0,1,.6-.36L21.2,80.65l-9.42-6.71a.52.52,0,0,1-.19-.67Z"/><path class="cls-3" d="M34.44,68.13a.38.38,0,0,1-.57.1L20.06,58.66a.35.35,0,0,1-.1-.56L21.45,56a.36.36,0,0,1,.56-.1l13.81,9.56a.38.38,0,0,1,.11.57Z"/><path class="cls-3" d="M35.18,40.9a.38.38,0,0,1,.06-.57l4.68-3.82c1.83-1.5,3.6-1.32,5.09.51l3.12,3.82c1.49,1.81,1.31,3.58-.51,5.1l-2.44,2,3.19,3.9a.35.35,0,0,1-.06.56L46.39,54a.38.38,0,0,1-.57-.05Zm9.88,2.94a.91.91,0,0,0,.15-1.42l-2.33-2.84a.89.89,0,0,0-1.42-.14l-1.93,1.61,3.6,4.4Z"/><path class="cls-3" d="M68.25,39.79a.38.38,0,0,1-.51-.14l-2.12-2.49-4.25,2.08.69,3.19a.38.38,0,0,1-.2.49L59.64,44c-.25.12-.42,0-.48-.25L55.52,26.81a.38.38,0,0,1,.23-.5l3.14-1.54a.39.39,0,0,1,.54.13L70.57,38.18c.19.22.15.41-.12.54Zm-9-10.36,1.58,6.84,2.85-1.39Z"/><path class="cls-3" d="M89.94,16a.43.43,0,0,1,.56.44l.64,16.79a.5.5,0,0,1-.47.54L88,34.22a.52.52,0,0,1-.63-.34l-4.14-9.73L82.8,34.72a.54.54,0,0,1-.46.55l-2.73.5A.5.5,0,0,1,79,35.4L73.71,19.49a.42.42,0,0,1,.37-.61l2.32-.43a.5.5,0,0,1,.61.38L80.12,29l.13,0,.51-10.83a.52.52,0,0,1,.47-.52l1.51-.28a.51.51,0,0,1,.62.32l4.34,9.94.12,0L87.18,17a.48.48,0,0,1,.43-.57Z"/><path class="cls-3" d="M114.34,16.94a.36.36,0,0,1,.35.44l-1.77,16.71a.37.37,0,0,1-.44.36l-2-.21a.45.45,0,0,1-.41-.38l-3.69-10-1,9.48a.36.36,0,0,1-.44.36l-2.35-.25a.37.37,0,0,1-.36-.44L104,16.25a.38.38,0,0,1,.45-.36l2,.21a.47.47,0,0,1,.42.37l3.69,10.06,1-9.48a.36.36,0,0,1,.44-.36Z"/><path class="cls-3" d="M127.62,20.45a.36.36,0,0,1,.52-.23l5.66,2.1c2.21.83,2.95,2.47,2.12,4.68l-3.6,9.7c-.82,2.21-2.44,2.95-4.66,2.13L122,36.73a.36.36,0,0,1-.24-.52Zm.54,15a.88.88,0,0,0,1.29-.59l3.11-8.37a.91.91,0,0,0-.58-1.32l-2.17-.81L126,34.66Z"/><path class="cls-3" d="M139.48,44.68a.36.36,0,0,1-.13-.56l9-14.22a.35.35,0,0,1,.55-.13l2.22,1.39a.37.37,0,0,1,.12.56L142.25,46a.37.37,0,0,1-.56.12Z"/><path class="cls-3" d="M154.25,51.67l3.62,3.42a.36.36,0,0,1,0,.57l-1.74,1.83a.34.34,0,0,1-.56,0L149.78,52a.36.36,0,0,1,0-.57l11.55-12.21a.37.37,0,0,1,.57,0l1.9,1.79a.36.36,0,0,1,0,.57Z"/><path class="cls-3" d="M166.38,65.75l2.76,4.15a.36.36,0,0,1-.12.56l-2.1,1.39a.34.34,0,0,1-.55-.12L162,65.06a.36.36,0,0,1,.11-.56l14-9.28a.37.37,0,0,1,.56.12l1.45,2.18a.36.36,0,0,1-.12.56Z"/><path class="cls-3" d="M173.74,88.5a.39.39,0,0,1,.19-.5l2.72-1.82-1.59-4.46-3.25.33a.38.38,0,0,1-.47-.26l-.83-2.32c-.09-.26,0-.43.3-.45l17.25-1.73a.4.4,0,0,1,.48.29l1.17,3.29a.38.38,0,0,1-.18.52L175.08,91c-.24.17-.42.1-.52-.18Zm11.31-7.83-7,.81,1.07,3Z"/><path class="cls-1" d="M13.68,67.57a.46.46,0,0,1,.66-.27l15.32,6.41a.45.45,0,0,1,.28.65L29,76.52a.45.45,0,0,1-.66.27L19.25,73l-.07.16,8.28,6a.52.52,0,0,1,.19.67l-.58,1.37a.52.52,0,0,1-.6.35L16.36,79.9l-.07.16,9.13,3.81a.46.46,0,0,1,.27.66l-.9,2.14a.45.45,0,0,1-.65.27L8.81,80.54a.46.46,0,0,1-.27-.66l1.28-3.07a.52.52,0,0,1,.61-.34l11.43,1.75-9.27-6.91a.52.52,0,0,1-.19-.67Z"/><path class="cls-1" d="M35.35,66a.36.36,0,0,1-.56.09L21.18,56.21a.36.36,0,0,1-.09-.56l1.53-2.12a.38.38,0,0,1,.57-.09L36.8,63.3a.38.38,0,0,1,.09.56Z"/><path class="cls-1" d="M36.67,38.77a.38.38,0,0,1,.07-.57l4.75-3.72c1.86-1.46,3.63-1.25,5.09.62l3,3.88c1.44,1.84,1.23,3.6-.62,5.08l-2.48,2,3.11,4a.36.36,0,0,1-.07.56l-2,1.5A.36.36,0,0,1,47,52Zm9.82,3.14a.9.9,0,0,0,.17-1.41l-2.27-2.89A.89.89,0,0,0,43,37.44L41,39l3.5,4.47Z"/><path class="cls-1" d="M69.74,38.36a.4.4,0,0,1-.52-.15l-2.06-2.54-4.29,2,.63,3.21a.41.41,0,0,1-.22.49l-2.24,1c-.25.12-.43,0-.48-.25l-3.29-17a.39.39,0,0,1,.24-.5l3.17-1.47a.39.39,0,0,1,.54.14L72.09,36.8c.18.22.13.41-.14.53ZM60.91,27.81l1.44,6.88,2.87-1.34Z"/><path class="cls-1" d="M91.93,15c.35-.06.56.11.56.44l.28,16.8a.5.5,0,0,1-.47.54l-2.68.43a.52.52,0,0,1-.62-.36L85.06,23,84.4,33.59a.5.5,0,0,1-.47.53l-2.73.45a.5.5,0,0,1-.62-.38l-5-16a.43.43,0,0,1,.39-.6l2.33-.38a.5.5,0,0,1,.6.39l2.9,10.18.13,0,.73-10.82a.52.52,0,0,1,.48-.51l1.52-.25a.52.52,0,0,1,.61.33l4.13,10,.12,0-.42-10.59c0-.33.12-.5.45-.55Z"/><path class="cls-1" d="M116.29,16.47a.37.37,0,0,1,.35.44l-2.12,16.67a.37.37,0,0,1-.45.35l-2-.25a.46.46,0,0,1-.41-.38l-3.48-10.13L107,32.63a.35.35,0,0,1-.45.34l-2.35-.29a.37.37,0,0,1-.35-.45L106,15.56a.38.38,0,0,1,.45-.35l2,.25a.46.46,0,0,1,.41.38L112.29,26l1.2-9.45a.36.36,0,0,1,.45-.35Z"/><path class="cls-1" d="M129.52,20.27A.36.36,0,0,1,130,20l5.62,2.23c2.19.87,2.89,2.52,2,4.72l-3.8,9.61c-.87,2.2-2.51,2.91-4.7,2l-5.62-2.23a.34.34,0,0,1-.22-.52Zm.22,15a.9.9,0,0,0,1.31-.56l3.28-8.31a.91.91,0,0,0-.55-1.33l-2.15-.85-4,10.2Z"/><path class="cls-1" d="M140.86,44.73a.36.36,0,0,1-.11-.56l9.24-14a.35.35,0,0,1,.55-.12l2.19,1.44a.37.37,0,0,1,.11.56l-9.24,14a.36.36,0,0,1-.55.12Z"/><path class="cls-1" d="M155.47,52l3.55,3.5a.36.36,0,0,1,0,.57l-1.76,1.79a.35.35,0,0,1-.57,0L151,52.26a.36.36,0,0,1,0-.57l11.79-12a.37.37,0,0,1,.57,0l1.86,1.83a.36.36,0,0,1,0,.57Z"/><path class="cls-1" d="M167.32,66.35,170,70.56a.37.37,0,0,1-.13.56l-2.12,1.34a.35.35,0,0,1-.56-.12l-4.28-6.76A.36.36,0,0,1,163,65l14.2-9a.36.36,0,0,1,.55.12l1.4,2.21a.36.36,0,0,1-.12.56Z"/><path class="cls-1" d="M174.19,89.24a.39.39,0,0,1,.21-.49L177.15,87l-1.5-4.49-3.25.27a.39.39,0,0,1-.46-.27l-.78-2.34c-.09-.27,0-.43.3-.45l17.29-1.37a.39.39,0,0,1,.47.3l1.11,3.31a.4.4,0,0,1-.2.52l-14.65,9.29c-.23.16-.42.09-.51-.2Zm11.47-7.6-7,.67,1,3Z"/><path class="cls-3" d="M162.42,82.94c-1.39-3.51-9.49-21.52-32-31.47C105.35,40.4,81,44.67,59.87,63.81c-9.85,9-15.94,21.72-17.13,36-.06.75-.14,2.24-.21,3.68s-.15,3.08-.19,3.4-.09.58-.14.82c-.09-.48-.19-1.1-.27-1.85-.49-4.39-1.09-20,11.5-36.11l.73-.91c2.1-2.58,2.88-3.54,2.73-4.54a1.43,1.43,0,0,0-.63-1c-2.4-1.62-8.21,4.88-8.26,4.95-5.68,7-10.12,16.77-12.5,27.6-6.32,32.87,8.78,62.61,38.47,75.77l.17.07a10.13,10.13,0,0,0,1.75.64c2,.54,4.26.3,5.57-2.33.84-1.75,1.94-3.91,2.92-5.83s1.81-3.56,2.3-4.6c1-2.06,1.23-3.71.67-5.06-.73-1.77-2.61-2.39-3.86-2.81a6.7,6.7,0,0,1-.77-.28c-19.48-8.44-18.31-9.13.14-1.06,4.14,1.8,7.16,1,9-2.26l0-.06c.48-1,.87-1.8,1.12-2.28l.28-.57c.64-1.32,2.15-4.41,3.45-7.25a5.07,5.07,0,0,0,.08-4.43,8,8,0,0,0-5-3.77c-4.3-1.74-9.9-6.33-12.11-12.33-.15-.53-2.1-7.66-.28-13.26,0,0,0,0,0-.06a22.37,22.37,0,0,1,27.25-16,22.72,22.72,0,0,1,16.2,27,20,20,0,0,1-2.38,5.72,4.48,4.48,0,0,0-.76,3.91,4.27,4.27,0,0,0,2.41,2.44l7.1,3.4.16.07a13.76,13.76,0,0,1,1.48.72,3.44,3.44,0,0,0,5-1.63l.07-.11.66-1.18a40.74,40.74,0,0,0,3.47-8.83,40.29,40.29,0,0,0,1.24-12.68,9.47,9.47,0,0,0,2.58-1.05c.55-.33,1-.58,1.31-.79l.6-.36h0l.17-.1a3.47,3.47,0,0,1,.54-.24l.13,0c.25-.07.6-.12,1.12-.21s.88-.14,1.51-.26c.23,0,.45-.1.67-.16l.29-.06.15,0a51.44,51.44,0,0,1-5.53,29,4.89,4.89,0,0,0-.69,3.86,4,4,0,0,0,2.28,2.31l8.63,4.15a4.2,4.2,0,0,0,3.31.16,4.12,4.12,0,0,0,2.13-2.48c2.7-5.95,5.53-14.92,5.58-15.06,3.48-13.3,2.23-27.64-3.72-42.63"/><path class="cls-2" d="M158.17,79.46c-1.52-3.85-9.67-21.29-31.46-30.91-11.36-5-39.83-14.69-69.4,12.16C47,70.06,41.59,83.14,40.51,96c-.13,1.55-.31,6.43-.41,7.13-.72,5.08-2,3.66-2.49-1.06-.45-4.16-1.35-20.12,11.73-36.88C52,62,53.07,60.71,52.4,60.26c-1.11-.75-5.51,3.09-6.86,4.75-5.61,6.89-9.95,16.54-12.28,27.14-6.15,32,8.26,61.49,37.86,74.6.91.41,4.43,2.29,6.12-1.11s4.23-8.3,5.23-10.43c2.73-5.55-1.72-6-3.44-6.73C59,139.78,53.35,120,53.29,119.79a1.31,1.31,0,0,1,.12-1,1.26,1.26,0,0,1,.78-.61,5.06,5.06,0,0,1,1.32-.26,1.34,1.34,0,0,1,.92.91c.06.2,4.81,18.45,23.58,26.65,1.81.79,5.47,2.13,7.67-1.81l1.12-2.28c.22-.45,2.14-4.34,3.73-7.8,1.84-4-2.37-6.28-4.3-6.76-4.26-1.71-10.38-6.46-12.78-13,0,0-2.28-7.74-.28-13.91a23.39,23.39,0,0,1,28.55-16.7c15.82,4.56,19.11,19.87,16.92,28.24a21,21,0,0,1-2.51,6c-2.27,3.54,1.18,4.82,1.18,4.82l7.14,3.43a9.33,9.33,0,0,1,1.65.78c2.42,1.17,3.23-.51,3.7-1.32.22-.38.43-.76.64-1.15A39.29,39.29,0,0,0,137,102.15a7.82,7.82,0,0,0,3.17-1.08c1.37-.81,1.94-1.19,2.41-1.42a3,3,0,0,1,.62-.22c.5-.13,1.19-.21,2.71-.48a8.25,8.25,0,0,0,2.17-.7,52.56,52.56,0,0,1-5.49,31c-1.47,2.69-.49,4,1.12,4.72l8.58,4.12c2.36,1,3.48-.19,4.07-1.75,2.71-6,5.53-14.92,5.53-14.92,3.88-14.79,1.44-29.08-3.68-42"/><path class="cls-1" d="M159.56,79.1c-1.39-3.51-9.49-21.53-32-31.48C102.49,36.55,78.1,40.82,57,60c-9.85,8.95-15.94,21.72-17.13,36-.06.75-.14,2.24-.21,3.68s-.15,3.07-.19,3.39-.09.59-.14.83c-.09-.49-.19-1.1-.27-1.86-.49-4.39-1.09-20,11.5-36.1L51.3,65c2.09-2.57,2.88-3.54,2.73-4.53a1.46,1.46,0,0,0-.64-1c-2.39-1.61-8.2,4.89-8.26,5C39.45,71.35,35,81.14,32.64,92c-6.32,32.86,8.77,62.6,38.47,75.76l.17.08a11,11,0,0,0,1.75.64c2,.53,4.25.29,5.57-2.33.84-1.75,1.94-3.92,2.92-5.83s1.81-3.57,2.29-4.6c1-2.07,1.24-3.72.68-5.06-.74-1.77-2.61-2.4-3.86-2.81l-.77-.28c-19.48-8.44-25.1-27.82-25.15-28a.25.25,0,0,1,0-.19.23.23,0,0,1,.16-.12,6,6,0,0,1,.84-.2.24.24,0,0,1,.1.14c.53,2,5.72,19.25,24.17,27.32,4.13,1.81,7.16,1.05,9-2.26l0-.05c.47-1,.87-1.81,1.12-2.29l.27-.56c.65-1.32,2.16-4.41,3.46-7.25a5.11,5.11,0,0,0,.08-4.43,8,8,0,0,0-5-3.77c-4.3-1.75-9.9-6.34-12.12-12.34-.14-.52-2.09-7.65-.28-13.26a.14.14,0,0,0,0-.06,22.36,22.36,0,0,1,27.25-15.95,22.71,22.71,0,0,1,16.2,27,19.85,19.85,0,0,1-2.38,5.72,4.49,4.49,0,0,0-.76,3.91,4.27,4.27,0,0,0,2.41,2.44l7.1,3.41.16.06a14.22,14.22,0,0,1,1.48.73,3.45,3.45,0,0,0,5-1.63l.07-.12c.22-.38.44-.78.65-1.17a40.2,40.2,0,0,0,4.72-21.52,9,9,0,0,0,2.58-1c.55-.32,1-.58,1.31-.79l.6-.35h0l.17-.1a3.47,3.47,0,0,1,.54-.24l.13,0c.25-.06.6-.12,1.12-.21l1.51-.25c.23,0,.45-.11.67-.16l.29-.07.15,0a50.89,50.89,0,0,1-1.4,18.33A51.69,51.69,0,0,1,142,128.79a4.84,4.84,0,0,0-.69,3.86,4,4,0,0,0,2.28,2.31l8.63,4.14a4.24,4.24,0,0,0,3.31.17,4.14,4.14,0,0,0,2.13-2.49c2.7-5.94,5.53-14.92,5.57-15.06,3.49-13.29,2.24-27.63-3.71-42.62m-3.78,56.84,0,.06a2.19,2.19,0,0,1-1,1.34,2.22,2.22,0,0,1-1.62-.15l-8.59-4.12a2.06,2.06,0,0,1-1.19-1.07,3.13,3.13,0,0,1,.55-2.23,53.79,53.79,0,0,0,4.31-11.17,52.9,52.9,0,0,0,1.36-19.75c2.93-1.79,4.52-5.31,4.45-10.12-.08-1.55-2.13-1.63-2.1,0,.05,3.19-.66,7-4,8.59-.21.1-.42.18-.64.26l-.3.11-.06,0c-.26.07-.53.14-.82.19l-1.5.25-1.11.2-1.22.46c-.26.14-.56.32-1,.56l-1.3.78a8.55,8.55,0,0,1-.79.41h0a6,6,0,0,1-.77.29h0c-3.61,1.08-6.7-1.42-8.77-3.91-1-1.12-2.38.37-1.61,1.34a13.11,13.11,0,0,0,6.57,4.63,8.25,8.25,0,0,0,1.76.27,38.07,38.07,0,0,1-4.46,20.35c-.2.38-.41.75-.63,1.12l-.07.13c-.49.85-.84,1.47-2.24.79a15.64,15.64,0,0,0-1.75-.84l-7.06-3.39-.08,0a2.23,2.23,0,0,1-1.22-1.18,2.57,2.57,0,0,1,.54-2.1,21.71,21.71,0,0,0,2.65-6.32A24.83,24.83,0,0,0,104.4,82.24,24.46,24.46,0,0,0,74.57,99.65c-2.06,6.4.19,14.17.28,14.5a.14.14,0,0,1,0,.07c2.44,6.65,8.65,11.72,13.38,13.62l.14,0a6,6,0,0,1,3.69,2.67,2.94,2.94,0,0,1-.1,2.64c-1.29,2.82-2.79,5.89-3.43,7.21l-.27.55c-.23.46-.63,1.27-1.12,2.28-1.3,2.3-3.19,2.69-6.32,1.33-17.86-7.81-22.79-25.21-23-26A2.38,2.38,0,0,0,56.18,117c-.26-.07-.61-.1-1.87.26a2.32,2.32,0,0,0-1.41,1.1,2.37,2.37,0,0,0-.21,1.79c.23.83,5.94,20.54,26.34,29.37.28.12.6.23.94.35,1,.34,2.22.73,2.59,1.62.3.73.09,1.88-.64,3.35-.47,1-1.35,2.74-2.27,4.56s-2.09,4.1-2.93,5.85-2.14,1.83-4.56.71l-.2-.09C43.19,153.08,28.57,124.24,34.7,92.4c2.3-10.49,6.58-20,12.06-26.7A22.5,22.5,0,0,1,51,61.93c-.39.51-.87,1.1-1.37,1.7l-.75.93C35.84,81.33,36.48,97.61,37,102.2s1.48,5.19,2.37,5.2c1.34,0,1.85-1.62,2.2-4.1.06-.4.12-1.63.22-3.59.07-1.42.14-2.89.2-3.61,1.15-13.71,7-26,16.45-34.59,20.42-18.54,44-22.68,68.28-12,21.78,9.62,29.57,26.95,30.91,30.33,5.78,14.56,7,28.47,3.65,41.27,0,.09-2.83,9-5.48,14.8"/><path class="cls-1" d="M142.71,89.67s-.36-.5-1.26-.06a13.41,13.41,0,0,1-1.61.88,14.58,14.58,0,0,1-1.79.41c-1,.27-.91.88-.91.88.47,2.34,3.54,1.71,3.8,1.61s3.14-1.7,1.77-3.72m-3.6,1.74c0,.15-.22.31-.56.36s-.61,0-.64-.17.23-.31.56-.37.62,0,.64.18"/><path class="cls-1" d="M140.09,76.86a1.94,1.94,0,0,0-.75.5,2.09,2.09,0,0,0-.4,1,5.64,5.64,0,0,0,0,2.35,5.48,5.48,0,0,0,1.8,2.81,16.29,16.29,0,0,0,2.82,1.88,2.92,2.92,0,0,0,1.38.5,2,2,0,0,0,1.58-.92,6.1,6.1,0,0,0,.72-1.75,10.38,10.38,0,0,0,.61-4.11c-.24-2-1.19-1.84-2.67-2-1.87-.21-3.12-1-5.06-.22"/><path class="cls-1" d="M135.8,94.06c.06.19-.18.43-.53.54s-.69.06-.75-.13.18-.42.53-.54.69-.05.75.13"/><path class="cls-1" d="M146,90.81c.06.19-.18.43-.53.54s-.69.06-.75-.13.18-.42.54-.54.68-.05.74.13"/><path class="cls-1" d="M138.19,95.65c.06.19-.18.43-.53.54s-.69.06-.75-.13.18-.42.54-.54.68,0,.74.13"/><path class="cls-1" d="M146.1,93.12c.06.18-.18.42-.53.54s-.69,0-.75-.13.18-.43.54-.54.68,0,.74.13"/><path class="cls-1" d="M135.09,96.06c.06.18-.18.42-.54.53s-.68.06-.74-.12.18-.43.53-.54.69-.06.75.13"/><path class="cls-1" d="M148.57,91.74c.06.19-.18.43-.54.54s-.68.06-.74-.13.18-.42.53-.54.69,0,.75.13"/><path class="cls-2" d="M144.52,80.49a1.32,1.32,0,1,1-1-1.62,1.32,1.32,0,0,1,1,1.62"/><path class="cls-1" d="M132.63,84.92a1.33,1.33,0,1,1-2.57-.67,1.33,1.33,0,0,1,2.57.67"/><path class="cls-1" d="M114.11,70c-1.08-.46-2.56-.88-3.28.74,0,0-1.61,3.42.31,6.08,3.37,3.52,9,.3,14,4.22.65.52,2-.21.65-2.43-3.09-5-10.56-8.14-11.64-8.61"/><path class="cls-1" d="M138.2,59.68s-2-1.76-2.85-.56c0,0-2.66,3.25-1.45,6.3,2.42,4.28,8.79,2.49,12.58,7.66.77,1.11,2,.13,1.13-2.32-1.8-5-9.41-11.08-9.41-11.08"/><path class="cls-1" d="M145.25,94.45a.42.42,0,0,0-.48.33,2,2,0,0,1-.83,1.24,1.87,1.87,0,0,1-1.47.07l-1.09-3c.84-.54,2.42-1.87,1.33-3.47,0,0-.36-.5-1.26-.06a13.41,13.41,0,0,1-1.61.88,14.58,14.58,0,0,1-1.79.41c-1,.27-.91.88-.91.88.4,2,2.64,1.83,3.48,1.68l1.09,3a1.81,1.81,0,0,1-1.09,1,2,2,0,0,1-1.47-.29.41.41,0,0,0-.46.69,3.12,3.12,0,0,0,1.56.47,2.36,2.36,0,0,0,.58-.07,2.63,2.63,0,0,0,1.55-1.27,2.59,2.59,0,0,0,2-.2,2.3,2.3,0,0,0,.45-.36,3,3,0,0,0,.77-1.44.41.41,0,0,0-.33-.48"/></svg>